# xmcd
#
# Track frame offsets:
#  150
#  16872
#  33991
#  47828
#  65960
#  82577
#  94839
#  110821
#  126983
#  141715
#  156499
#  172516
#
# Disc length: 2561 seconds
#
# Revision: 0
# Processed by: cddbd v1.4b42PL1 Copyright (c) Steve Scherf et al.
# Submitted via: AltoMP3_Maker 3.0
#
DISCID=a309ff0c
DTITLE=Tracy Byrd - Ten Rounds
DYEAR=1900
DGENRE=
TTITLE0=Somebody's Dream
TTITLE1=Just Let Me Be In Love
TTITLE2=Ten Rounds With Jose Cuervo
TTITLE3=Wildfire
TTITLE4=How Much Does The World Weigh
TTITLE5=Summertime Fever
TTITLE6=Crazy Every Time
TTITLE7=A Good Way To Get On My Bad Side
TTITLE8=Needed
TTITLE9=Tryin' Not To Love You
TTITLE10=Never Gonna Break Again
TTITLE11=Keeper Of The Stars
EXTD=
EXTT0=
EXTT1=
EXTT2=
EXTT3=
EXTT4=
EXTT5=
EXTT6=
EXTT7=
EXTT8=
EXTT9=
EXTT10=
EXTT11=
PLAYORDER=
